<svg id="Layer_1" data-name="Layer 1" xmlns="http://www.w3.org/2000/svg" viewBox="0 0 18 23"><defs><style>.cls-1{fill:#00aa63;}</style></defs><path class="cls-1" d="M15.21,9.63V6.23a6.23,6.23,0,0,0-12.46,0v3.4A2.39,2.39,0,0,0,.83,12V20.6A2.41,2.41,0,0,0,3.23,23h11.5a2.4,2.4,0,0,0,2.39-2.4V12A2.39,2.39,0,0,0,15.21,9.63ZM10,17l.37,2.59a.48.48,0,0,1-.11.38.52.52,0,0,1-.37.17H8A.49.49,0,0,1,7.66,20a.44.44,0,0,1-.12-.38L7.91,17A2.4,2.4,0,1,1,10,17Zm2.29-7.41H5.62V6.23a3.36,3.36,0,1,1,6.71,0Z"/></svg>