<svg id="Layer_1" data-name="Layer 1" xmlns="http://www.w3.org/2000/svg" viewBox="0 0 18 23"><defs><style>.cls-1{fill:#727373;}</style></defs><path class="cls-1" d="M15.25,9.63V6.23a6.23,6.23,0,0,0-12.46,0v3.4A2.39,2.39,0,0,0,.88,12V20.6A2.4,2.4,0,0,0,3.27,23h11.5a2.41,2.41,0,0,0,2.4-2.4V12A2.39,2.39,0,0,0,15.25,9.63ZM10.09,17l.37,2.59a.45.45,0,0,1-.12.38.49.49,0,0,1-.36.17H8.07A.52.52,0,0,1,7.7,20a.47.47,0,0,1-.11-.38L8,17a2.4,2.4,0,1,1,2.13,0Zm2.29-7.41H5.67V6.23a3.36,3.36,0,1,1,6.71,0Z"/></svg>