<svg id="Layer_1" data-name="Layer 1" xmlns="http://www.w3.org/2000/svg" viewBox="0 0 23 23"><defs><style>.cls-1{fill:#737373;}</style></defs><path class="cls-1" d="M16.94.75a6.06,6.06,0,0,0-6.06,6.06V9.44H1.32A1.32,1.32,0,0,0,0,10.76V21.68A1.32,1.32,0,0,0,1.32,23H14.88a1.32,1.32,0,0,0,1.32-1.32V10.76a1.32,1.32,0,0,0-1.32-1.32h-.72V6.81a2.78,2.78,0,1,1,5.56,0,1.64,1.64,0,0,0,3.28,0A6.06,6.06,0,0,0,16.94.75ZM9.38,16.35v2.17a1.29,1.29,0,0,1-2.57,0V16.35a2.08,2.08,0,1,1,3.37-1.63,2.06,2.06,0,0,1-.8,1.63Zm0,0"/></svg>