<?xml version="1.0" encoding="UTF-8" standalone="no"?>
<!DOCTYPE svg PUBLIC "-//W3C//DTD SVG 1.1//EN" "http://www.w3.org/Graphics/SVG/1.1/DTD/svg11.dtd">
<svg width="100%" height="100%" viewBox="0 0 21 21" version="1.1" xmlns="http://www.w3.org/2000/svg" xmlns:xlink="http://www.w3.org/1999/xlink" xml:space="preserve" xmlns:serif="http://www.serif.com/" style="fill-rule:evenodd;clip-rule:evenodd;stroke-linecap:round;stroke-linejoin:round;stroke-miterlimit:1.5;">
    <g transform="matrix(1,0,0,1,0.039823,0.0265487)">
        <g transform="matrix(1,0,0,1,-0.358407,0.517699)">
            <rect x="2.894" y="2.018" width="15.929" height="15.929" style="fill:none;stroke:rgb(86,91,93);stroke-width:0.7px;"/>
        </g>
        <g transform="matrix(1,0,0,1,-6.90265,9.76991)">
            <circle cx="9.385" cy="8.668" r="1.075" style="fill:white;stroke:rgb(86,91,93);stroke-width:0.7px;"/>
        </g>
        <g transform="matrix(1,0,0,1,9.07965,9.76991)">
            <circle cx="9.385" cy="8.668" r="1.075" style="fill:white;stroke:rgb(86,91,93);stroke-width:0.7px;"/>
        </g>
        <g transform="matrix(1,0,0,1,9.07965,-6.15929)">
            <circle cx="9.385" cy="8.668" r="1.075" style="fill:white;stroke:rgb(86,91,93);stroke-width:0.7px;"/>
        </g>
        <g transform="matrix(1,0,0,1,-6.9292,-6.15929)">
            <circle cx="9.385" cy="8.668" r="1.075" style="fill:white;stroke:rgb(86,91,93);stroke-width:0.7px;"/>
        </g>
        <g transform="matrix(1,0,0,1,-0.530973,0.902655)">
            <rect x="5.177" y="3.77" width="4.699" height="4.699" style="fill:rgb(86,91,93);"/>
        </g>
        <g transform="matrix(1,0,0,1,0.0265487,0.477876)">
            <path d="M7.009,11.204L7.009,15.584" style="fill:none;stroke:rgb(86,91,93);stroke-width:0.7px;"/>
            <path d="M7.088,15.531L8.681,13.832" style="fill:none;stroke:rgb(86,91,93);stroke-width:0.7px;"/>
            <g transform="matrix(-1,0,0,1,14.0442,0)">
                <path d="M7.088,15.531L8.681,13.832" style="fill:none;stroke:rgb(86,91,93);stroke-width:0.7px;"/>
            </g>
        </g>
        <g transform="matrix(6.12323e-17,-1,1,6.12323e-17,0.504425,14.0973)">
            <path d="M7.009,11.204L7.009,15.584" style="fill:none;stroke:rgb(86,91,93);stroke-width:0.7px;"/>
            <path d="M7.088,15.531L8.681,13.832" style="fill:none;stroke:rgb(86,91,93);stroke-width:0.7px;"/>
            <g transform="matrix(-1,0,0,1,14.0442,0)">
                <path d="M7.088,15.531L8.681,13.832" style="fill:none;stroke:rgb(86,91,93);stroke-width:0.7px;"/>
            </g>
        </g>
    </g>
</svg>
