<?xml version="1.0"?>
<svg xmlns="http://www.w3.org/2000/svg" xmlns:xlink="http://www.w3.org/1999/xlink" version="1.1" id="Layer_1" x="0px" y="0px" viewBox="0 0 194.828 194.828" style="enable-background:new 0 0 194.828 194.828;" xml:space="preserve" width="512px" height="512px" class=""><g><g>
	<g>
		<g>
			<path d="M42.862,155.863h38.966c2.154,0,3.897-1.745,3.897-3.897V19.483c0-2.152-1.743-3.897-3.897-3.897H42.862     c-2.154,0-3.897,1.745-3.897,3.897v132.483C38.966,154.118,40.708,155.863,42.862,155.863z M46.759,23.38h31.172v124.69H46.759     V23.38z" data-original="#000000" class="active-path" data-old_color="#565b5d" fill="#565b5d"/>
			<path d="M120.793,155.863h38.966c2.154,0,3.897-1.745,3.897-3.897V70.139c0-2.152-1.743-3.897-3.897-3.897h-38.966     c-2.154,0-3.897,1.745-3.897,3.897v81.828C116.897,154.118,118.639,155.863,120.793,155.863z M124.69,74.035h31.172v74.034     H124.69V74.035z" data-original="#000000" class="active-path" data-old_color="#565b5d" fill="#565b5d"/>
			<rect y="171.449" width="194.828" height="7.793" data-original="#000000" class="active-path" data-old_color="#565b5d" fill="#565b5d"/>
		</g>
	</g>
</g></g> </svg>
