<?xml version="1.0"?>
<svg xmlns="http://www.w3.org/2000/svg" xmlns:xlink="http://www.w3.org/1999/xlink" version="1.1" id="Capa_1" x="0px" y="0px" viewBox="0 0 60 60" style="enable-background:new 0 0 60 60;" xml:space="preserve" width="512px" height="512px"><g><g>
	<path d="M10,29.07c0.55,0,1-0.45,1-1c0-0.56-0.45-1-1-1c-0.55,0-1,0.44-1,1C9,28.62,9.45,29.07,10,29.07z" data-original="#000000" class="active-path" data-old_color="#565b5d" fill="#565b5d"/>
	<circle cx="10" cy="31.93" r="1" data-original="#000000" class="active-path" data-old_color="#565b5d" fill="#565b5d"/>
	<circle cx="10" cy="35.8" r="1" data-original="#000000" class="active-path" data-old_color="#565b5d" fill="#565b5d"/>
	<path d="M10,5.87c0.55,0,1-0.45,1-1c0-0.56-0.45-1-1-1c-0.55,0-1,0.44-1,1C9,5.42,9.45,5.87,10,5.87z" data-original="#000000" class="active-path" data-old_color="#565b5d" fill="#565b5d"/>
	<circle cx="10" cy="12.6" r="1" data-original="#000000" class="active-path" data-old_color="#565b5d" fill="#565b5d"/>
	<path d="M10,9.73c0.55,0,1-0.44,1-1c0-0.55-0.45-1-1-1c-0.55,0-1,0.45-1,1C9,9.29,9.45,9.73,10,9.73z" data-original="#000000" class="active-path" data-old_color="#565b5d" fill="#565b5d"/>
	<path d="M10,17.47c0.55,0,1-0.45,1-1c0-0.56-0.45-1-1-1c-0.55,0-1,0.44-1,1C9,17.02,9.45,17.47,10,17.47z" data-original="#000000" class="active-path" data-old_color="#565b5d" fill="#565b5d"/>
	<path d="M10,21.33c0.55,0,1-0.44,1-1c0-0.55-0.45-1-1-1c-0.55,0-1,0.45-1,1C9,20.89,9.45,21.33,10,21.33z" data-original="#000000" class="active-path" data-old_color="#565b5d" fill="#565b5d"/>
	<circle cx="10" cy="24.2" r="1" data-original="#000000" class="active-path" data-old_color="#565b5d" fill="#565b5d"/>
	<path d="M10,2c0.26,0,0.52-0.11,0.71-0.29C10.89,1.52,11,1.26,11,1c0-0.26-0.11-0.52-0.29-0.71c-0.38-0.37-1.04-0.37-1.42,0   C9.11,0.48,9,0.74,9,1c0,0.26,0.11,0.52,0.29,0.71C9.48,1.89,9.74,2,10,2z" data-original="#000000" class="active-path" data-old_color="#565b5d" fill="#565b5d"/>
	<circle cx="42" cy="1" r="1" data-original="#000000" class="active-path" data-old_color="#565b5d" fill="#565b5d"/>
	<circle cx="34" cy="1" r="1" data-original="#000000" class="active-path" data-old_color="#565b5d" fill="#565b5d"/>
	<circle cx="30" cy="1" r="1" data-original="#000000" class="active-path" data-old_color="#565b5d" fill="#565b5d"/>
	<circle cx="46" cy="1" r="1" data-original="#000000" class="active-path" data-old_color="#565b5d" fill="#565b5d"/>
	<circle cx="14" cy="1" r="1" data-original="#000000" class="active-path" data-old_color="#565b5d" fill="#565b5d"/>
	<circle cx="18" cy="1" r="1" data-original="#000000" class="active-path" data-old_color="#565b5d" fill="#565b5d"/>
	<circle cx="22" cy="1" r="1" data-original="#000000" class="active-path" data-old_color="#565b5d" fill="#565b5d"/>
	<circle cx="26" cy="1" r="1" data-original="#000000" class="active-path" data-old_color="#565b5d" fill="#565b5d"/>
	<circle cx="38" cy="1" r="1" data-original="#000000" class="active-path" data-old_color="#565b5d" fill="#565b5d"/>
	<path d="M50,2c0.26,0,0.52-0.11,0.71-0.29C50.89,1.52,51,1.26,51,1c0-0.26-0.11-0.52-0.29-0.71c-0.38-0.37-1.05-0.37-1.42,0   C49.11,0.48,49,0.74,49,1c0,0.26,0.11,0.52,0.29,0.71C49.48,1.89,49.74,2,50,2z" data-original="#000000" class="active-path" data-old_color="#565b5d" fill="#565b5d"/>
	<circle cx="50" cy="12.6" r="1" data-original="#000000" class="active-path" data-old_color="#565b5d" fill="#565b5d"/>
	<path d="M50,38.67c-0.293,0-0.55,0.129-0.733,0.33H10.733c-0.183-0.201-0.441-0.33-0.733-0.33c-0.293,0-0.55,0.129-0.733,0.33H9v21   h42V39h-0.267C50.55,38.799,50.292,38.67,50,38.67z" data-original="#000000" class="active-path" data-old_color="#565b5d" fill="#565b5d"/>
	<path d="M50,3.87c-0.55,0-1,0.44-1,1c0,0.55,0.45,1,1,1c0.55,0,1-0.45,1-1C51,4.31,50.55,3.87,50,3.87z" data-original="#000000" class="active-path" data-old_color="#565b5d" fill="#565b5d"/>
	<path d="M50,15.47c-0.55,0-1,0.44-1,1c0,0.55,0.45,1,1,1c0.55,0,1-0.45,1-1C51,15.91,50.55,15.47,50,15.47z" data-original="#000000" class="active-path" data-old_color="#565b5d" fill="#565b5d"/>
	<path d="M50,7.73c-0.55,0-1,0.45-1,1c0,0.56,0.45,1,1,1c0.55,0,1-0.44,1-1C51,8.18,50.55,7.73,50,7.73z" data-original="#000000" class="active-path" data-old_color="#565b5d" fill="#565b5d"/>
	<circle cx="50" cy="31.93" r="1" data-original="#000000" class="active-path" data-old_color="#565b5d" fill="#565b5d"/>
	<circle cx="50" cy="35.8" r="1" data-original="#000000" class="active-path" data-old_color="#565b5d" fill="#565b5d"/>
	<circle cx="50" cy="24.2" r="1" data-original="#000000" class="active-path" data-old_color="#565b5d" fill="#565b5d"/>
	<path d="M50,27.07c-0.55,0-1,0.44-1,1c0,0.55,0.45,1,1,1c0.55,0,1-0.45,1-1C51,27.51,50.55,27.07,50,27.07z" data-original="#000000" class="active-path" data-old_color="#565b5d" fill="#565b5d"/>
	<path d="M50,19.33c-0.55,0-1,0.45-1,1c0,0.56,0.45,1,1,1c0.55,0,1-0.44,1-1C51,19.78,50.55,19.33,50,19.33z" data-original="#000000" class="active-path" data-old_color="#565b5d" fill="#565b5d"/>
</g></g> </svg>
