<?xml version="1.0" encoding="UTF-8" standalone="no"?>
<!DOCTYPE svg PUBLIC "-//W3C//DTD SVG 1.1//EN" "http://www.w3.org/Graphics/SVG/1.1/DTD/svg11.dtd">
<svg width="100%" height="100%" viewBox="0 0 21 21" version="1.1" xmlns="http://www.w3.org/2000/svg" xmlns:xlink="http://www.w3.org/1999/xlink" xml:space="preserve" xmlns:serif="http://www.serif.com/" style="fill-rule:evenodd;clip-rule:evenodd;stroke-linecap:round;stroke-linejoin:round;stroke-miterlimit:1.5;">
    <g transform="matrix(1.08855,0,0,1.08855,-1.22114,-1.22104)">
        <g transform="matrix(1.0528,0,0,1.0528,-0.484472,0.0186335)">
            <path d="M14.708,10.905L11.824,10.905C11.575,10.932 11.39,11.134 11.381,11.38L11.382,14.23L6.159,14.23L6.159,9.007L9.043,9.006C9.288,8.98 9.477,8.779 9.485,8.531L9.485,5.681L14.708,5.681L14.708,10.905Z" style="fill:rgb(86,91,93);"/>
        </g>
        <g transform="matrix(0.760352,0,0,0.760352,7.31677,7.68012)">
            <rect x="6.159" y="5.681" width="8.549" height="8.549" style="fill:none;stroke:rgb(86,91,93);stroke-width:1.32px;"/>
        </g>
        <g transform="matrix(0.760352,0,0,0.760352,-2.18323,-1.81988)">
            <rect x="6.159" y="5.681" width="8.549" height="8.549" style="fill:none;stroke:rgb(86,91,93);stroke-width:1.32px;"/>
        </g>
        <g transform="matrix(0.760352,0,0,0.760352,7.31677,7.68012)">
            <path d="M10.105,5.023L14.755,5.023C15.077,5.057 15.331,5.307 15.366,5.634C15.469,8.497 15.368,11.365 15.368,14.23C15.356,14.571 15.1,14.851 14.755,14.888C11.892,14.991 9.024,14.89 6.159,14.89C5.818,14.878 5.538,14.622 5.501,14.277L5.5,9.627L6.819,9.627L6.819,13.57L14.048,13.57L14.048,6.341L10.105,6.341L10.105,5.023Z" style="fill:rgb(86,91,93);"/>
        </g>
    </g>
</svg>
