<?xml version="1.0"?>
<svg xmlns="http://www.w3.org/2000/svg" xmlns:xlink="http://www.w3.org/1999/xlink" version="1.1" id="Capa_1" x="0px" y="0px" viewBox="0 0 60 60" style="enable-background:new 0 0 60 60;" xml:space="preserve" width="512px" height="512px" class=""><g><g>
	<path d="M0.29,49.29C0.109,49.48,0,49.74,0,50c0,0.26,0.109,0.52,0.29,0.71C0.479,50.89,0.74,51,1,51s0.52-0.11,0.71-0.29   C1.89,50.52,2,50.26,2,50c0-0.26-0.11-0.52-0.29-0.71C1.34,48.92,0.66,48.92,0.29,49.29z" data-original="#000000" class="active-path" data-old_color="#565b5d" fill="#565b5d"/>
	<circle cx="1" cy="26" r="1" data-original="#000000" class="active-path" data-old_color="#565b5d" fill="#565b5d"/>
	<circle cx="1" cy="18" r="1" data-original="#000000" class="active-path" data-old_color="#565b5d" fill="#565b5d"/>
	<circle cx="1" cy="30" r="1" data-original="#000000" class="active-path" data-old_color="#565b5d" fill="#565b5d"/>
	<circle cx="1" cy="22" r="1" data-original="#000000" class="active-path" data-old_color="#565b5d" fill="#565b5d"/>
	<circle cx="1" cy="14" r="1" data-original="#000000" class="active-path" data-old_color="#565b5d" fill="#565b5d"/>
	<circle cx="1" cy="42" r="1" data-original="#000000" class="active-path" data-old_color="#565b5d" fill="#565b5d"/>
	<circle cx="1" cy="34" r="1" data-original="#000000" class="active-path" data-old_color="#565b5d" fill="#565b5d"/>
	<circle cx="1" cy="46" r="1" data-original="#000000" class="active-path" data-old_color="#565b5d" fill="#565b5d"/>
	<circle cx="1" cy="38" r="1" data-original="#000000" class="active-path" data-old_color="#565b5d" fill="#565b5d"/>
	<path d="M0.29,9.29C0.109,9.48,0,9.74,0,10c0,0.26,0.109,0.52,0.29,0.71C0.479,10.89,0.74,11,1,11s0.52-0.11,0.71-0.29   C1.89,10.52,2,10.26,2,10c0-0.26-0.11-0.52-0.29-0.71C1.34,8.92,0.66,8.92,0.29,9.29z" data-original="#000000" class="active-path" data-old_color="#565b5d" fill="#565b5d"/>
	<path d="M16.47,9c-0.56,0-1,0.45-1,1c0,0.55,0.44,1,1,1c0.55,0,1-0.45,1-1C17.47,9.45,17.02,9,16.47,9z" data-original="#000000" class="active-path" data-old_color="#565b5d" fill="#565b5d"/>
	<path d="M40.67,10c0-0.433-0.283-0.795-0.67-0.933V9H19v42h21v-0.067c0.387-0.138,0.67-0.5,0.67-0.933   c0-0.433-0.283-0.795-0.67-0.933V10.933C40.387,10.795,40.67,10.433,40.67,10z" data-original="#000000" class="active-path" data-old_color="#565b5d" fill="#565b5d"/>
	<path d="M4.87,9c-0.561,0-1,0.45-1,1c0,0.55,0.439,1,1,1c0.55,0,1-0.45,1-1C5.87,9.45,5.42,9,4.87,9z" data-original="#000000" class="active-path" data-old_color="#565b5d" fill="#565b5d"/>
	<circle cx="8.729" cy="10" r="1" data-original="#000000" class="active-path" data-old_color="#565b5d" fill="#565b5d"/>
	<path d="M51.27,9c-0.56,0-1,0.45-1,1c0,0.55,0.44,1,1,1c0.55,0,1-0.45,1-1C52.27,9.45,51.819,9,51.27,9z" data-original="#000000" class="active-path" data-old_color="#565b5d" fill="#565b5d"/>
	<circle cx="43.53" cy="10" r="1" data-original="#000000" class="active-path" data-old_color="#565b5d" fill="#565b5d"/>
	<circle cx="47.399" cy="10" r="1" data-original="#000000" class="active-path" data-old_color="#565b5d" fill="#565b5d"/>
	<circle cx="12.6" cy="10" r="1" data-original="#000000" class="active-path" data-old_color="#565b5d" fill="#565b5d"/>
	<circle cx="55.13" cy="10" r="1" data-original="#000000" class="active-path" data-old_color="#565b5d" fill="#565b5d"/>
	<path d="M59,11c0.26,0,0.52-0.11,0.71-0.29C59.899,10.52,60,10.26,60,10c0-0.26-0.101-0.52-0.29-0.71c-0.37-0.37-1.05-0.37-1.42,0   C58.109,9.48,58,9.74,58,10c0,0.26,0.109,0.52,0.29,0.71C58.479,10.89,58.74,11,59,11z" data-original="#000000" class="active-path" data-old_color="#565b5d" fill="#565b5d"/>
	<circle cx="59" cy="42" r="1" data-original="#000000" class="active-path" data-old_color="#565b5d" fill="#565b5d"/>
	<circle cx="59" cy="30" r="1" data-original="#000000" class="active-path" data-old_color="#565b5d" fill="#565b5d"/>
	<circle cx="59" cy="26" r="1" data-original="#000000" class="active-path" data-old_color="#565b5d" fill="#565b5d"/>
	<circle cx="59" cy="34" r="1" data-original="#000000" class="active-path" data-old_color="#565b5d" fill="#565b5d"/>
	<circle cx="59" cy="38" r="1" data-original="#000000" class="active-path" data-old_color="#565b5d" fill="#565b5d"/>
	<circle cx="59" cy="22" r="1" data-original="#000000" class="active-path" data-old_color="#565b5d" fill="#565b5d"/>
	<circle cx="59" cy="14" r="1" data-original="#000000" class="active-path" data-old_color="#565b5d" fill="#565b5d"/>
	<circle cx="59" cy="18" r="1" data-original="#000000" class="active-path" data-old_color="#565b5d" fill="#565b5d"/>
	<circle cx="59" cy="46" r="1" data-original="#000000" class="active-path" data-old_color="#565b5d" fill="#565b5d"/>
	<path d="M58.29,49.29C58.109,49.48,58,49.74,58,50c0,0.26,0.109,0.52,0.29,0.71C58.479,50.89,58.729,51,59,51   c0.26,0,0.52-0.11,0.71-0.29C59.899,50.52,60,50.26,60,50c0-0.26-0.101-0.52-0.29-0.71C59.33,48.92,58.66,48.92,58.29,49.29z" data-original="#000000" class="active-path" data-old_color="#565b5d" fill="#565b5d"/>
	<circle cx="8.729" cy="50" r="1" data-original="#000000" class="active-path" data-old_color="#565b5d" fill="#565b5d"/>
	<circle cx="43.53" cy="50" r="1" data-original="#000000" class="active-path" data-old_color="#565b5d" fill="#565b5d"/>
	<circle cx="12.6" cy="50" r="1" data-original="#000000" class="active-path" data-old_color="#565b5d" fill="#565b5d"/>
	<path d="M16.47,49c-0.56,0-1,0.45-1,1c0,0.55,0.44,1,1,1c0.55,0,1-0.45,1-1C17.47,49.45,17.02,49,16.47,49z" data-original="#000000" class="active-path" data-old_color="#565b5d" fill="#565b5d"/>
	<circle cx="47.399" cy="50" r="1" data-original="#000000" class="active-path" data-old_color="#565b5d" fill="#565b5d"/>
	<path d="M4.87,49c-0.561,0-1,0.45-1,1c0,0.55,0.439,1,1,1c0.55,0,1-0.45,1-1C5.87,49.45,5.42,49,4.87,49z" data-original="#000000" class="active-path" data-old_color="#565b5d" fill="#565b5d"/>
	<path d="M51.27,49c-0.56,0-1,0.45-1,1c0,0.55,0.44,1,1,1c0.55,0,1-0.45,1-1C52.27,49.45,51.819,49,51.27,49z" data-original="#000000" class="active-path" data-old_color="#565b5d" fill="#565b5d"/>
	<path d="M55.13,49c-0.55,0-1,0.45-1,1c0,0.55,0.45,1,1,1c0.56,0,1-0.45,1-1C56.13,49.45,55.689,49,55.13,49z" data-original="#000000" class="active-path" data-old_color="#565b5d" fill="#565b5d"/>
</g></g> </svg>
