<?xml version="1.0" encoding="iso-8859-1"?>
<!-- Generator: Adobe Illustrator 19.0.0, SVG Export Plug-In . SVG Version: 6.00 Build 0)  -->
<svg version="1.1" id="Capa_1" xmlns="http://www.w3.org/2000/svg" xmlns:xlink="http://www.w3.org/1999/xlink" x="0px" y="0px"
	 viewBox="0 0 512 512" style="enable-background:new 0 0 512 512;" xml:space="preserve">
<path style="fill:#AAE9FD;" d="M266.868,398.017H245.13c-18.773,0-34.132-14.692-34.968-33.446l-9.847-221.565h111.368
	l-9.847,221.564C301.001,383.326,285.641,398.017,266.868,398.017z"/>
<path style="fill:#96C8F0;" d="M266.868,398.017c18.773,0,34.132-14.692,34.967-33.447l9.846-221.564h-55.684v255.011H266.868z"/>
<path style="fill:#FFE470;" d="M301.001,173.007h-90.004V45.002C210.997,20.188,231.185,0,255.999,0s45.002,20.188,45.002,45.002
	V173.007z"/>
<path style="fill:#0091BF;" d="M255.999,512c-12.115,0-24.23-4.611-33.453-13.835c-18.447-18.446-18.447-48.461,0-66.907
	l33.453-33.453l33.453,33.453c18.447,18.446,18.447,48.461,0,66.907C280.229,507.388,268.114,512,255.999,512z"/>
<path style="fill:#00D7DF;" d="M266.868,398.017H245.13c-18.773,0-34.132-14.692-34.968-33.446l-5.948-133.842l22.545,10.739
	c11.394,5.427,14.966,3.726,22.79,0c5.04-2.401,11.313-5.39,19.527-6.172c9.032-0.862,18.54,1.158,29.064,6.172l8.977,4.275
	l-5.281,118.825C301.001,383.326,285.641,398.017,266.868,398.017z"/>
<path style="fill:#007A9F;" d="M289.452,431.258l-33.453-33.453v114.195c12.115,0,24.23-4.611,33.453-13.835
	C307.899,479.719,307.899,449.704,289.452,431.258z"/>
<path style="fill:#FFB64C;" d="M255.999,0v173.007h45.002V45.002C301.001,20.188,280.813,0,255.999,0z"/>
<path style="fill:#00AADF;" d="M269.076,235.296c-5.036,0.479-9.336,1.791-13.077,3.285v159.436h10.869
	c18.773,0,34.132-14.692,34.967-33.447l5.281-118.825l-8.977-4.275C287.615,236.454,278.108,234.434,269.076,235.296z"/>
<rect x="170.996" y="143.006" style="fill:#FFA721;" width="170.007" height="30.001"/>
<rect x="256" y="143.006" style="fill:#FF8503;" width="85.004" height="30.001"/>
<g>
</g>
<g>
</g>
<g>
</g>
<g>
</g>
<g>
</g>
<g>
</g>
<g>
</g>
<g>
</g>
<g>
</g>
<g>
</g>
<g>
</g>
<g>
</g>
<g>
</g>
<g>
</g>
<g>
</g>
</svg>
