<?xml version="1.0" encoding="UTF-8" standalone="no"?><!DOCTYPE svg PUBLIC "-//W3C//DTD SVG 1.1//EN" "http://www.w3.org/Graphics/SVG/1.1/DTD/svg11.dtd"><svg width="100%" height="100%" viewBox="0 0 32 32" version="1.1" xmlns="http://www.w3.org/2000/svg" xmlns:xlink="http://www.w3.org/1999/xlink" xml:space="preserve" xmlns:serif="http://www.serif.com/" style="fill-rule:evenodd;clip-rule:evenodd;stroke-linejoin:round;stroke-miterlimit:1.41421;"><path d="M32,16.001l-6,-6l0,4l-2.001,0l0,-6.001l-16,0l0,6.001l-1.999,0l0,-4l-6,6l6,6l0,-4l1.999,0l0,5.999l16,0l0,-5.999l2.001,0l0,4l6,-6Zm-10.001,5.999l-12,0l0,-12l12,0l0,12Z" style="fill:#565b5d;fill-rule:nonzero;"/><path d="M15.999,32l6,-6l-4,0l0,-2.001l6.001,0l0,-16l-6.001,0l0,-1.999l4,0l-6,-6l-6,6l4,0l0,1.999l-5.999,0l0,16l5.999,0l0,2.001l-4,0l6,6Zm-5.999,-10.001l0,-12l12,0l0,12l-12,0Z" style="fill:#565b5d;fill-rule:nonzero;"/></svg>