<?xml version="1.0" encoding="UTF-8" standalone="no"?><!DOCTYPE svg PUBLIC "-//W3C//DTD SVG 1.1//EN" "http://www.w3.org/Graphics/SVG/1.1/DTD/svg11.dtd"><svg width="100%" height="100%" viewBox="0 0 512 512" version="1.1" xmlns="http://www.w3.org/2000/svg" xmlns:xlink="http://www.w3.org/1999/xlink" xml:space="preserve" xmlns:serif="http://www.serif.com/" style="fill-rule:evenodd;clip-rule:evenodd;stroke-linejoin:round;stroke-miterlimit:1.41421;"><g><path d="M468.995,142.759c-0.253,0 -0.38,0 -0.633,0l-43.51,0l0,-130.111c0,-6.956 -5.691,-12.648 -12.648,-12.648c-6.956,0 -12.648,5.692 -12.648,12.648l0,130.111l-43.889,0c-6.957,0 -13.028,5.186 -13.028,12.269l0,192.711c0.127,7.083 5.945,12.648 13.028,12.648l43.889,0l0,138.965c0,6.956 5.692,12.648 12.648,12.648c6.957,0 12.648,-5.692 12.648,-12.648l0,-138.965l43.51,0c6.704,0 12.143,-5.438 12.143,-12.268c0,-0.127 0,-0.253 0,-0.38l0,-192.711c0.126,-6.577 -4.933,-12.016 -11.51,-12.269Zm-13.787,192.332l-87.273,0l0,-167.036l87.273,0l0,167.036Z" style="fill:#565b5d;fill-rule:nonzero;"/><path d="M210.181,62.759c-0.253,0 -0.38,0 -0.633,0l-50.308,0l0,-50.111c0,-6.956 -5.692,-12.648 -12.648,-12.648c-6.957,0 -12.649,5.692 -12.649,12.648l0,50.111l-49.928,0c-6.704,-0.253 -12.396,5.059 -12.522,11.889l0,363.091c0,6.957 5.565,12.522 12.395,12.648l50.055,0l0,48.965c0,6.956 5.692,12.648 12.649,12.648c6.956,0 12.648,-5.692 12.648,-12.648l0,-48.965l50.308,0c6.704,0 12.142,-5.438 12.142,-12.142c0,-0.126 0,-0.253 0,-0.379l0,-362.838c0.253,-6.577 -4.932,-12.016 -11.509,-12.269Zm-13.787,362.332l-99.605,0l0,-337.036l99.605,0l0,337.036Z" style="fill:#565b5d;fill-rule:nonzero;"/></g></svg>