<?xml version="1.0"?>
<svg xmlns="http://www.w3.org/2000/svg" xmlns:xlink="http://www.w3.org/1999/xlink" version="1.1" id="Capa_1" x="0px" y="0px" viewBox="0 0 60 60" style="enable-background:new 0 0 60 60;" xml:space="preserve" width="512px" height="512px" class=""><g><g>
	<path d="M49.29,58.29C49.11,58.48,49,58.74,49,59c0,0.26,0.11,0.52,0.29,0.71C49.48,59.89,49.74,60,50,60   c0.26,0,0.52-0.11,0.71-0.29C50.89,59.52,51,59.26,51,59c0-0.26-0.11-0.52-0.29-0.71C50.34,57.92,49.66,57.92,49.29,58.29z" data-original="#000000" class="active-path" data-old_color="#565b5d" fill="#565b5d"/>
	<circle cx="38" cy="59" r="1" data-original="#000000" class="active-path" data-old_color="#565b5d" fill="#565b5d"/>
	<circle cx="46" cy="59" r="1" data-original="#000000" class="active-path" data-old_color="#565b5d" fill="#565b5d"/>
	<circle cx="42" cy="59" r="1" data-original="#000000" class="active-path" data-old_color="#565b5d" fill="#565b5d"/>
	<circle cx="34" cy="59" r="1" data-original="#000000" class="active-path" data-old_color="#565b5d" fill="#565b5d"/>
	<circle cx="14" cy="59" r="1" data-original="#000000" class="active-path" data-old_color="#565b5d" fill="#565b5d"/>
	<circle cx="18" cy="59" r="1" data-original="#000000" class="active-path" data-old_color="#565b5d" fill="#565b5d"/>
	<circle cx="22" cy="59" r="1" data-original="#000000" class="active-path" data-old_color="#565b5d" fill="#565b5d"/>
	<circle cx="26" cy="59" r="1" data-original="#000000" class="active-path" data-old_color="#565b5d" fill="#565b5d"/>
	<circle cx="30" cy="59" r="1" data-original="#000000" class="active-path" data-old_color="#565b5d" fill="#565b5d"/>
	<path d="M9.29,58.29C9.11,58.48,9,58.74,9,59c0,0.26,0.11,0.52,0.29,0.71C9.48,59.89,9.74,60,10,60c0.26,0,0.52-0.11,0.71-0.29   C10.89,59.52,11,59.26,11,59c0-0.26-0.11-0.52-0.29-0.71C10.33,57.92,9.67,57.92,9.29,58.29z" data-original="#000000" class="active-path" data-old_color="#565b5d" fill="#565b5d"/>
	<path d="M10,54.13c-0.55,0-1,0.45-1,1c0,0.56,0.45,1,1,1c0.55,0,1-0.44,1-1C11,54.58,10.55,54.13,10,54.13z" data-original="#000000" class="active-path" data-old_color="#565b5d" fill="#565b5d"/>
	<path d="M10,50.27c-0.55,0-1,0.44-1,1c0,0.55,0.45,1,1,1c0.55,0,1-0.45,1-1C11,50.71,10.55,50.27,10,50.27z" data-original="#000000" class="active-path" data-old_color="#565b5d" fill="#565b5d"/>
	<path d="M10,42.53c-0.55,0-1,0.45-1,1c0,0.56,0.45,1,1,1c0.55,0,1-0.44,1-1C11,42.98,10.55,42.53,10,42.53z" data-original="#000000" class="active-path" data-old_color="#565b5d" fill="#565b5d"/>
	<circle cx="10" cy="47.4" r="1" data-original="#000000" class="active-path" data-old_color="#565b5d" fill="#565b5d"/>
	<path d="M10,9.73c0.55,0,1-0.44,1-1c0-0.55-0.45-1-1-1c-0.55,0-1,0.45-1,1C9,9.29,9.45,9.73,10,9.73z" data-original="#000000" class="active-path" data-old_color="#565b5d" fill="#565b5d"/>
	<path d="M10,17.47c0.55,0,1-0.45,1-1c0-0.56-0.45-1-1-1c-0.55,0-1,0.44-1,1C9,17.02,9.45,17.47,10,17.47z" data-original="#000000" class="active-path" data-old_color="#565b5d" fill="#565b5d"/>
	<circle cx="10" cy="12.6" r="1" data-original="#000000" class="active-path" data-old_color="#565b5d" fill="#565b5d"/>
	<path d="M10,5.87c0.55,0,1-0.45,1-1c0-0.56-0.45-1-1-1c-0.55,0-1,0.44-1,1C9,5.42,9.45,5.87,10,5.87z" data-original="#000000" class="active-path" data-old_color="#565b5d" fill="#565b5d"/>
	<path d="M10,2c0.26,0,0.52-0.11,0.71-0.29C10.89,1.52,11,1.26,11,1c0-0.26-0.11-0.52-0.29-0.71c-0.37-0.37-1.05-0.37-1.42,0   C9.11,0.48,9,0.74,9,1c0,0.26,0.11,0.52,0.29,0.71C9.48,1.89,9.74,2,10,2z" data-original="#000000" class="active-path" data-old_color="#565b5d" fill="#565b5d"/>
	<circle cx="26" cy="1" r="1" data-original="#000000" class="active-path" data-old_color="#565b5d" fill="#565b5d"/>
	<circle cx="14" cy="1" r="1" data-original="#000000" class="active-path" data-old_color="#565b5d" fill="#565b5d"/>
	<circle cx="22" cy="1" r="1" data-original="#000000" class="active-path" data-old_color="#565b5d" fill="#565b5d"/>
	<circle cx="18" cy="1" r="1" data-original="#000000" class="active-path" data-old_color="#565b5d" fill="#565b5d"/>
	<circle cx="30" cy="1" r="1" data-original="#000000" class="active-path" data-old_color="#565b5d" fill="#565b5d"/>
	<circle cx="42" cy="1" r="1" data-original="#000000" class="active-path" data-old_color="#565b5d" fill="#565b5d"/>
	<circle cx="34" cy="1" r="1" data-original="#000000" class="active-path" data-old_color="#565b5d" fill="#565b5d"/>
	<circle cx="46" cy="1" r="1" data-original="#000000" class="active-path" data-old_color="#565b5d" fill="#565b5d"/>
	<circle cx="38" cy="1" r="1" data-original="#000000" class="active-path" data-old_color="#565b5d" fill="#565b5d"/>
	<path d="M50,2c0.26,0,0.52-0.11,0.71-0.29C50.89,1.52,51,1.26,51,1c0-0.26-0.11-0.52-0.29-0.71c-0.37-0.37-1.05-0.37-1.42,0   C49.11,0.48,49,0.74,49,1c0,0.26,0.11,0.52,0.29,0.71C49.48,1.89,49.74,2,50,2z" data-original="#000000" class="active-path" data-old_color="#565b5d" fill="#565b5d"/>
	<path d="M50,15.47c-0.55,0-1,0.44-1,1c0,0.55,0.45,1,1,1c0.55,0,1-0.45,1-1C51,15.91,50.55,15.47,50,15.47z" data-original="#000000" class="active-path" data-old_color="#565b5d" fill="#565b5d"/>
	<path d="M50,3.87c-0.55,0-1,0.44-1,1c0,0.55,0.45,1,1,1c0.55,0,1-0.45,1-1C51,4.31,50.55,3.87,50,3.87z" data-original="#000000" class="active-path" data-old_color="#565b5d" fill="#565b5d"/>
	<path d="M50,19.33c-0.433,0-0.795,0.283-0.933,0.67H10.933c-0.138-0.387-0.5-0.67-0.933-0.67c-0.433,0-0.795,0.283-0.933,0.67H9v21   h42V20h-0.067C50.795,19.613,50.433,19.33,50,19.33z" data-original="#000000" class="active-path" data-old_color="#565b5d" fill="#565b5d"/>
	<circle cx="50" cy="12.6" r="1" data-original="#000000" class="active-path" data-old_color="#565b5d" fill="#565b5d"/>
	<path d="M50,7.73c-0.55,0-1,0.45-1,1c0,0.56,0.45,1,1,1c0.55,0,1-0.44,1-1C51,8.18,50.55,7.73,50,7.73z" data-original="#000000" class="active-path" data-old_color="#565b5d" fill="#565b5d"/>
	<path d="M50,50.27c-0.55,0-1,0.44-1,1c0,0.55,0.45,1,1,1c0.55,0,1-0.45,1-1C51,50.71,50.55,50.27,50,50.27z" data-original="#000000" class="active-path" data-old_color="#565b5d" fill="#565b5d"/>
	<path d="M50,54.13c-0.55,0-1,0.45-1,1c0,0.56,0.45,1,1,1c0.55,0,1-0.44,1-1C51,54.58,50.55,54.13,50,54.13z" data-original="#000000" class="active-path" data-old_color="#565b5d" fill="#565b5d"/>
	<circle cx="50" cy="47.4" r="1" data-original="#000000" class="active-path" data-old_color="#565b5d" fill="#565b5d"/>
	<path d="M50,42.53c-0.55,0-1,0.45-1,1c0,0.56,0.45,1,1,1c0.55,0,1-0.44,1-1C51,42.98,50.55,42.53,50,42.53z" data-original="#000000" class="active-path" data-old_color="#565b5d" fill="#565b5d"/>
</g></g> </svg>
