<?xml version="1.0"?>
<svg xmlns="http://www.w3.org/2000/svg" viewBox="0 0 512 512" width="512px" height="512px"><g><path d="m497.230469 398.746094h-140.308594c-31.21875 0-56.613281 25.394531-56.613281 56.613281 0 14.929687-12.148438 27.078125-27.078125 27.078125h-216.613281c-14.933594 0-27.078126-12.148438-27.078126-27.078125v-19.714844c0-14.921875 12.140626-27.066406 27.0625-27.074219l39.035157-.019531c.011719 0 .027343-.003906.039062-.003906.445313 0 .890625-.027344 1.339844-.066406.183594-.015625.363281-.046875.546875-.070313.191406-.027344.386719-.042968.578125-.074218l104.238281-17.980469c.054688-.011719.105469-.023438.15625-.035157.164063-.03125.324219-.066406.484375-.101562.261719-.058594.519531-.117188.773438-.191406.179687-.046875.359375-.101563.539062-.15625.238281-.078125.476563-.160156.714844-.25.171875-.066406.347656-.125.519531-.195313.367188-.15625.726563-.320312 1.082032-.503906.140624-.074219.28125-.160156.421874-.238281.25-.140625.496094-.28125.738282-.4375.148437-.09375.296875-.195313.445312-.296875.234375-.164063.46875-.335938.695313-.515625.121093-.09375.246093-.1875.367187-.289063.34375-.285156.679688-.582031.996094-.902343l263.265625-263.261719s-.003906.003906 0 0c21.113281-21.113281 21.113281-55.46875 0-76.585938l-30.5625-30.558593c-21.113281-21.117188-55.472656-21.113282-76.585937 0l-263.261719 263.261718c-.320313.316406-.617188.65625-.90625 1-.097657.117188-.191407.238282-.285157.359375-.179687.230469-.351562.464844-.515624.703125-.101563.144532-.203126.292969-.296876.441406-.152343.238282-.292968.480469-.429687.726563-.089844.160156-.183594.320313-.269531.480469-.171875.339844-.328125.679687-.476563 1.03125-.074219.175781-.136719.359375-.207031.539062-.082031.226563-.164062.457032-.238281.6875-.058594.1875-.113281.375-.164063.5625-.066406.242188-.125.488282-.179687.738282-.039063.171874-.078125.34375-.109375.515624-.011719.050782-.023438.097657-.03125.144532l-15.871094 91.992187-26.601562.011719c-31.203126.015625-56.585938 25.414062-56.585938 56.613281v19.714844c0 31.21875 25.398438 56.617187 56.617188 56.617187h216.613281c31.21875 0 56.617187-25.398437 56.617187-56.617187 0-14.929687 12.144532-27.078125 27.074219-27.078125h140.308594c8.15625 0 14.769531-6.609375 14.769531-14.765625 0-8.160156-6.613281-14.769531-14.769531-14.769531zm-373.910157-78.609375 45.953126 45.953125-55.53125 9.578125zm220.300782-239.722657 22.242187 22.242188-209.125 209.125-22.242187-22.242188zm-143.753906 274.496094-22.242188-22.242187 209.128906-209.125 22.242188 22.242187zm187.449218-318.191406c9.597656-9.59375 25.210938-9.59375 34.8125 0l30.558594 30.5625c9.597656 9.597656 9.597656 25.214844 0 34.8125l-22.808594 22.808594c0-.003906.003906 0 .003906 0s0 0-.003906 0l-65.371094-65.375zm0 0" data-original="#000000" class="active-path" data-old_color="#565b5d" fill="#565b5d"/></g> </svg>
