<?xml version="1.0" encoding="UTF-8" standalone="no"?>
<!DOCTYPE svg PUBLIC "-//W3C//DTD SVG 1.1//EN" "http://www.w3.org/Graphics/SVG/1.1/DTD/svg11.dtd">
<svg width="100%" height="100%" viewBox="0 0 21 21" version="1.1" xmlns="http://www.w3.org/2000/svg" xmlns:xlink="http://www.w3.org/1999/xlink" xml:space="preserve" xmlns:serif="http://www.serif.com/" style="fill-rule:evenodd;clip-rule:evenodd;stroke-linejoin:round;stroke-miterlimit:1.41421;">
    <g transform="matrix(0.869691,0,0,0.869691,1.3485,1.34886)">
        <path d="M0.358,16.978C0.148,16.934 0,16.752 0,16.542C0,9.289 8.61,7.744 10.61,7.483L10.61,4.155C10.61,3.991 10.7,3.841 10.845,3.762C10.992,3.686 11.166,3.697 11.301,3.786L20.503,9.98C20.624,10.062 20.697,10.198 20.697,10.349C20.697,10.496 20.624,10.633 20.503,10.715L11.306,16.908C11.169,16.998 10.993,17.008 10.849,16.931C10.703,16.853 10.613,16.702 10.613,16.537L10.613,12.957C9.166,12.966 7.968,13.03 6.971,13.15C2.186,13.717 0.907,16.59 0.855,16.713C0.784,16.878 0.622,16.984 0.445,16.984C0.415,16.986 0.385,16.984 0.358,16.978Z" style="fill:rgb(86,91,93);fill-rule:nonzero;"/>
    </g>
</svg>
