<?xml version="1.0" encoding="UTF-8" standalone="no"?>
<!DOCTYPE svg PUBLIC "-//W3C//DTD SVG 1.1//EN" "http://www.w3.org/Graphics/SVG/1.1/DTD/svg11.dtd">
<svg width="100%" height="100%" viewBox="0 0 512 512" version="1.1" xmlns="http://www.w3.org/2000/svg" xmlns:xlink="http://www.w3.org/1999/xlink" xml:space="preserve" xmlns:serif="http://www.serif.com/" style="fill-rule:evenodd;clip-rule:evenodd;stroke-linejoin:round;stroke-miterlimit:1.41421;">
    <g transform="matrix(1,0,0,1,-9.75,-31.751)">
        <path d="M479.751,68.749L447.75,68.749C438.914,68.749 431.751,75.912 431.751,84.751L431.751,92.752L99.749,92.752L99.749,84.751C99.749,75.912 92.586,68.749 83.75,68.749L51.749,68.749C42.913,68.749 35.75,75.912 35.75,84.751L35.75,116.749C35.75,125.585 42.913,132.748 51.749,132.748L59.75,132.748L59.75,442.748L51.749,442.748C42.913,442.748 35.75,449.911 35.75,458.75L35.75,490.748C35.75,499.584 42.913,506.753 51.749,506.753L83.75,506.753C92.586,506.753 99.749,499.584 99.749,490.748L99.749,482.75L431.751,482.75L431.751,490.748C431.751,499.584 438.914,506.753 447.75,506.753L479.751,506.753C488.587,506.753 495.75,499.584 495.75,490.748L495.75,458.75C495.75,449.911 488.587,442.748 479.751,442.748L471.75,442.748L471.75,132.748L479.751,132.748C488.587,132.748 495.75,125.585 495.75,116.749L495.75,84.751C495.75,75.912 488.587,68.749 479.751,68.749ZM455.748,442.748L447.75,442.748C438.914,442.748 431.751,449.911 431.751,458.75L431.751,466.751L99.749,466.751L99.749,458.75C99.749,449.911 92.586,442.748 83.75,442.748L75.752,442.748L75.752,132.748L83.75,132.748C92.586,132.748 99.749,125.585 99.749,116.749L99.749,108.751L431.751,108.751L431.751,116.749C431.751,125.585 438.914,132.748 447.75,132.748L455.748,132.748L455.748,442.748Z" style="fill:rgb(86,91,93);fill-rule:nonzero;stroke:rgb(86,91,93);stroke-width:5px;"/>
    </g>
    <g transform="matrix(1,0,0,1,-0.647282,16.182)">
        <rect x="297.75" y="145.412" width="110.038" height="22.655" style="fill:rgb(86,91,93);"/>
    </g>
    <g transform="matrix(1,0,0,1,-0.647282,79.6157)">
        <rect x="297.75" y="145.412" width="110.038" height="22.655" style="fill:rgb(86,91,93);"/>
    </g>
    <g transform="matrix(1,0,0,1,-0.647282,144.991)">
        <rect x="297.75" y="145.412" width="110.038" height="22.655" style="fill:rgb(86,91,93);"/>
    </g>
    <g transform="matrix(0.845934,0,0,0.845934,40.4197,127.559)">
        <path d="M160.244,43.953L91.124,43.953L91.124,18.897L257.876,18.897L257.876,43.953L188.756,43.953L188.756,220.497L160.244,220.497L160.244,43.953Z" style="fill:rgb(86,91,93);fill-rule:nonzero;"/>
    </g>
</svg>
