<?xml version="1.0"?>
<svg xmlns="http://www.w3.org/2000/svg" xmlns:xlink="http://www.w3.org/1999/xlink" version="1.1" id="Capa_1" x="0px" y="0px" viewBox="0 0 60 60" style="enable-background:new 0 0 60 60;" xml:space="preserve" width="512px" height="512px"><g><g>
	<path d="M49.29,58.29C49.11,58.48,49,58.74,49,59c0,0.26,0.11,0.52,0.29,0.71C49.48,59.89,49.74,60,50,60   c0.26,0,0.52-0.11,0.71-0.29C50.89,59.52,51,59.26,51,59c0-0.26-0.11-0.52-0.29-0.71C50.33,57.92,49.67,57.92,49.29,58.29z" data-original="#000000" class="active-path" data-old_color="#565b5d" fill="#565b5d"/>
	<circle cx="38" cy="59" r="1" data-original="#000000" class="active-path" data-old_color="#565b5d" fill="#565b5d"/>
	<circle cx="34" cy="59" r="1" data-original="#000000" class="active-path" data-old_color="#565b5d" fill="#565b5d"/>
	<circle cx="42" cy="59" r="1" data-original="#000000" class="active-path" data-old_color="#565b5d" fill="#565b5d"/>
	<circle cx="46" cy="59" r="1" data-original="#000000" class="active-path" data-old_color="#565b5d" fill="#565b5d"/>
	<circle cx="14" cy="59" r="1" data-original="#000000" class="active-path" data-old_color="#565b5d" fill="#565b5d"/>
	<circle cx="30" cy="59" r="1" data-original="#000000" class="active-path" data-old_color="#565b5d" fill="#565b5d"/>
	<circle cx="18" cy="59" r="1" data-original="#000000" class="active-path" data-old_color="#565b5d" fill="#565b5d"/>
	<circle cx="26" cy="59" r="1" data-original="#000000" class="active-path" data-old_color="#565b5d" fill="#565b5d"/>
	<circle cx="22" cy="59" r="1" data-original="#000000" class="active-path" data-old_color="#565b5d" fill="#565b5d"/>
	<path d="M9.29,58.29C9.11,58.48,9,58.74,9,59c0,0.26,0.11,0.52,0.29,0.71C9.48,59.89,9.74,60,10,60c0.26,0,0.52-0.11,0.71-0.29   C10.89,59.52,11,59.26,11,59c0-0.26-0.11-0.52-0.29-0.71C10.33,57.92,9.67,57.92,9.29,58.29z" data-original="#000000" class="active-path" data-old_color="#565b5d" fill="#565b5d"/>
	<path d="M10,42.53c-0.55,0-1,0.45-1,1c0,0.56,0.45,1,1,1c0.55,0,1-0.44,1-1C11,42.98,10.55,42.53,10,42.53z" data-original="#000000" class="active-path" data-old_color="#565b5d" fill="#565b5d"/>
	<path d="M10,50.27c-0.55,0-1,0.44-1,1c0,0.55,0.45,1,1,1c0.55,0,1-0.45,1-1C11,50.71,10.55,50.27,10,50.27z" data-original="#000000" class="active-path" data-old_color="#565b5d" fill="#565b5d"/>
	<circle cx="10" cy="47.4" r="1" data-original="#000000" class="active-path" data-old_color="#565b5d" fill="#565b5d"/>
	<circle cx="10" cy="24.2" r="1" data-original="#000000" class="active-path" data-old_color="#565b5d" fill="#565b5d"/>
	<path d="M10,54.13c-0.55,0-1,0.45-1,1c0,0.56,0.45,1,1,1c0.55,0,1-0.44,1-1C11,54.58,10.55,54.13,10,54.13z" data-original="#000000" class="active-path" data-old_color="#565b5d" fill="#565b5d"/>
	<path d="M10,27.07c-0.55,0-1,0.44-1,1c0,0.55,0.45,1,1,1c0.55,0,1-0.45,1-1C11,27.51,10.55,27.07,10,27.07z" data-original="#000000" class="active-path" data-old_color="#565b5d" fill="#565b5d"/>
	<path d="M10,38.67c-0.55,0-1,0.44-1,1c0,0.55,0.45,1,1,1c0.55,0,1-0.45,1-1C11,39.11,10.55,38.67,10,38.67z" data-original="#000000" class="active-path" data-old_color="#565b5d" fill="#565b5d"/>
	<circle cx="10" cy="35.8" r="1" data-original="#000000" class="active-path" data-old_color="#565b5d" fill="#565b5d"/>
	<circle cx="10" cy="31.93" r="1" data-original="#000000" class="active-path" data-old_color="#565b5d" fill="#565b5d"/>
	<circle cx="50" cy="31.93" r="1" data-original="#000000" class="active-path" data-old_color="#565b5d" fill="#565b5d"/>
	<path d="M50,27.07c-0.55,0-1,0.44-1,1c0,0.55,0.45,1,1,1c0.55,0,1-0.45,1-1C51,27.51,50.55,27.07,50,27.07z" data-original="#000000" class="active-path" data-old_color="#565b5d" fill="#565b5d"/>
	<circle cx="50" cy="24.2" r="1" data-original="#000000" class="active-path" data-old_color="#565b5d" fill="#565b5d"/>
	<circle cx="50" cy="35.8" r="1" data-original="#000000" class="active-path" data-old_color="#565b5d" fill="#565b5d"/>
	<path d="M50,54.13c-0.55,0-1,0.45-1,1c0,0.56,0.45,1,1,1c0.55,0,1-0.44,1-1C51,54.58,50.55,54.13,50,54.13z" data-original="#000000" class="active-path" data-old_color="#565b5d" fill="#565b5d"/>
	<path d="M50,50.27c-0.55,0-1,0.44-1,1c0,0.55,0.45,1,1,1c0.55,0,1-0.45,1-1C51,50.71,50.55,50.27,50,50.27z" data-original="#000000" class="active-path" data-old_color="#565b5d" fill="#565b5d"/>
	<path d="M50,38.67c-0.55,0-1,0.44-1,1c0,0.55,0.45,1,1,1c0.55,0,1-0.45,1-1C51,39.11,50.55,38.67,50,38.67z" data-original="#000000" class="active-path" data-old_color="#565b5d" fill="#565b5d"/>
	<circle cx="50" cy="47.4" r="1" data-original="#000000" class="active-path" data-old_color="#565b5d" fill="#565b5d"/>
	<path d="M50,42.53c-0.55,0-1,0.45-1,1c0,0.56,0.45,1,1,1c0.55,0,1-0.44,1-1C51,42.98,50.55,42.53,50,42.53z" data-original="#000000" class="active-path" data-old_color="#565b5d" fill="#565b5d"/>
	<path d="M9,0v21h0.267C9.45,21.2,9.708,21.33,10,21.33c0.292,0,0.55-0.129,0.733-0.33h38.534c0.183,0.2,0.441,0.33,0.733,0.33   c0.292,0,0.55-0.129,0.733-0.33H51V0H9z" data-original="#000000" class="active-path" data-old_color="#565b5d" fill="#565b5d"/>
</g></g> </svg>
