<?xml version="1.0" encoding="UTF-8" standalone="no"?>
<!DOCTYPE svg PUBLIC "-//W3C//DTD SVG 1.1//EN" "http://www.w3.org/Graphics/SVG/1.1/DTD/svg11.dtd">
<svg width="100%" height="100%" viewBox="0 0 21 21" version="1.1" xmlns="http://www.w3.org/2000/svg" xmlns:xlink="http://www.w3.org/1999/xlink" xml:space="preserve" xmlns:serif="http://www.serif.com/" style="fill-rule:evenodd;clip-rule:evenodd;stroke-linejoin:round;stroke-miterlimit:1.41421;">
    <g transform="matrix(-0.0351563,4.30541e-18,4.30541e-18,0.0351563,19.5,1.50035)">
        <path d="M8.856,420C3.661,418.911 0,414.409 0,409.214C0,229.79 212.993,191.57 262.469,185.114L262.469,102.786C262.469,98.729 264.695,95.018 268.282,93.064C271.919,91.184 276.223,91.456 279.563,93.658L507.201,246.884C510.194,248.913 512,252.277 512,256.012C512,259.649 510.194,263.038 507.201,265.066L279.687,418.268C276.297,420.495 271.944,420.742 268.381,418.837C264.77,416.908 262.543,413.172 262.543,409.09L262.543,320.529C226.747,320.751 197.111,322.335 172.448,325.303C54.077,339.33 22.437,410.402 21.151,413.444C19.395,417.526 15.387,420.148 11.008,420.148C10.266,420.198 9.524,420.148 8.856,420Z" style="fill:rgb(86,91,93);fill-rule:nonzero;"/>
    </g>
</svg>
