<?xml version="1.0" encoding="UTF-8" standalone="no"?><!DOCTYPE svg PUBLIC "-//W3C//DTD SVG 1.1//EN" "http://www.w3.org/Graphics/SVG/1.1/DTD/svg11.dtd"><svg width="100%" height="100%" viewBox="0 0 512 512" version="1.1" xmlns="http://www.w3.org/2000/svg" xmlns:xlink="http://www.w3.org/1999/xlink" xml:space="preserve" xmlns:serif="http://www.serif.com/" style="fill-rule:evenodd;clip-rule:evenodd;stroke-linejoin:round;stroke-miterlimit:1.41421;"><g><path d="M142.759,63.005c0,0.253 0,0.38 0,0.633l0,43.509l-130.111,0c-6.956,0 -12.648,5.692 -12.648,12.649c0,6.956 5.692,12.648 12.648,12.648l130.111,0l0,43.889c0,6.957 5.186,13.028 12.269,13.028l192.711,0c7.083,-0.127 12.648,-5.945 12.648,-13.028l0,-43.889l138.965,0c6.956,0 12.648,-5.692 12.648,-12.648c0,-6.957 -5.692,-12.649 -12.648,-12.649l-138.965,0l0,-43.509c0,-6.704 -5.438,-12.143 -12.269,-12.143c-0.126,0 -0.252,0 -0.379,0l-192.711,0c-6.578,-0.126 -12.016,4.933 -12.269,11.51Zm192.332,13.787l0,87.272l-167.036,0l0,-87.272l167.036,0Z" style="fill:#565b5d;fill-rule:nonzero;"/><path d="M62.759,321.819c0,0.253 0,0.38 0,0.633l0,50.308l-50.111,0c-6.956,0 -12.648,5.692 -12.648,12.648c0,6.957 5.692,12.648 12.648,12.648l50.111,0l0,49.929c-0.253,6.704 5.059,12.396 11.889,12.522l363.091,0c6.957,0 12.522,-5.565 12.648,-12.395l0,-50.056l48.965,0c6.956,0 12.648,-5.691 12.648,-12.648c0,-6.956 -5.692,-12.648 -12.648,-12.648l-48.965,0l0,-50.308c0,-6.704 -5.438,-12.143 -12.142,-12.143c-0.127,0 -0.253,0 -0.379,0l-362.838,0c-6.578,-0.253 -12.016,4.933 -12.269,11.51Zm362.332,13.787l0,99.605l-337.036,0l0,-99.605l337.036,0Z" style="fill:#565b5d;fill-rule:nonzero;"/></g></svg>